<?xml version="1.0" encoding="utf-8"?>
<!-- Generator: Adobe Illustrator 21.0.0, SVG Export Plug-In . SVG Version: 6.00 Build 0)  -->
<svg version="1.1" xmlns="http://www.w3.org/2000/svg" xmlns:xlink="http://www.w3.org/1999/xlink" x="0px" y="0px"
	 viewBox="0 0 300 78" style="enable-background:new 0 0 300 78;" xml:space="preserve">
<style type="text/css">
	.st0{display:none;}
	.st1{display:inline;fill:#FF0000;stroke:#000000;stroke-miterlimit:10;}
	.st2{display:inline;fill:#797A7A;}
	.st3{enable-background:new    ;}
	.st4{fill:#FFFFFF;}
	.st5{fill:none;stroke:#FFFFFF;stroke-width:10;stroke-miterlimit:10;}
</style>
<g id="圖層_2_1_" class="st0">
	<rect x="-33" y="-32" class="st1" width="392" height="180"/>
</g>
<g id="圖層_1">
	<g id="圖層_1_1_" class="st0">
		<rect class="st2" width="300" height="78"/>
	</g>
	<g id="圖層_3" class="st0">
		
			<image style="display:inline;overflow:visible;enable-background:new    ;" width="1280" height="720" xlink:href="A3059107.jpeg"  transform="matrix(0.6513 0 0 0.6513 -628.9907 115.5866)">
		</image>
		
			<image style="display:inline;overflow:visible;enable-background:new    ;" width="319" height="420" xlink:href="A3059105.jpeg"  transform="matrix(0.2595 0 0 0.2595 -179.9583 -38.6251)">
		</image>
	</g>
	<g id="圖層_4">
	</g>
	<g class="st3">
		<path class="st4" d="M41.6,44.4h7c-0.8,1.7-1.8,3-3,4.2c-1.2,1.1-2.5,2-4,2.7c-1.8,0.8-3.7,1.2-5.6,1.2c-2.6,0-5.1-0.7-7.5-2.2
			c-2.2-1.4-3.9-3.2-5-5.4c-1-2-1.5-4.1-1.5-6.5c0-3.8,1.3-7.1,3.9-9.8c1.3-1.4,2.9-2.4,4.6-3.1c1.8-0.7,3.6-1.1,5.5-1.1
			c3.9,0,7.3,1.5,10.1,4.4l-4.2,4C40.1,30.9,38.1,30,36,30c-2.5,0-4.5,0.9-6.2,2.7c-1.5,1.6-2.2,3.4-2.2,5.6c0,2.3,0.8,4.3,2.4,5.9
			c1.6,1.6,3.6,2.4,5.9,2.4C38.2,46.7,40.1,45.9,41.6,44.4z M36,41.2v-5.6h13.7c0.2,1,0.3,1.9,0.3,2.8s-0.1,1.8-0.3,2.8H36z"/>
		<path class="st4" d="M53.7,24.9h5.8v14.7c0,2,0.3,3.5,0.8,4.5c0.5,0.9,1.5,1.7,2.9,2.2v5.9c-1.3-0.2-2.5-0.6-3.6-1.3
			c-1.1-0.6-2.1-1.4-3-2.3c-1-1.1-1.7-2.3-2.1-3.6s-0.6-2.9-0.6-4.8V24.9z M69.9,24.9h5.8v15.3c0,1.9-0.2,3.5-0.6,4.8
			s-1.1,2.5-2.1,3.6c-0.9,1-1.9,1.7-3,2.4c-1.2,0.6-2.4,1-3.6,1.3v-5.9c1.4-0.5,2.4-1.2,2.9-2.2c0.5-0.9,0.8-2.4,0.8-4.5V24.9z"/>
		<path class="st4" d="M77.3,30.5v-5.6h18v5.6H77.3z M83.4,51.7V33.8h5.8v17.9H83.4z"/>
		<path class="st4" d="M101.8,36.7H96c0.3-2.8,1.4-5.2,3.2-7.4c1.3-1.6,2.9-2.8,4.8-3.7c1.9-0.9,3.9-1.4,6-1.4
			c2.7,0,5.3,0.7,7.6,2.2c1.8,1.1,3.2,2.6,4.3,4.3s1.8,3.7,2.1,5.9h-5.8c-0.4-1.4-0.9-2.5-1.6-3.4c-0.7-1-1.7-1.8-2.8-2.3
			c-1.2-0.6-2.5-1-3.9-1c-2,0-3.8,0.6-5.2,1.8C103.2,33.1,102.2,34.7,101.8,36.7z M96,39.9h5.8c0.3,1.3,0.8,2.4,1.5,3.4
			c0.8,1.1,1.8,1.9,2.9,2.4c1.2,0.6,2.4,0.9,3.7,0.9c2,0,3.7-0.6,5.2-1.8s2.5-2.8,3-4.9h5.8c-0.4,2.9-1.5,5.4-3.4,7.6
			c-1.3,1.5-2.9,2.7-4.7,3.6c-1.9,0.9-3.8,1.3-5.9,1.3c-2.9,0-5.5-0.8-7.9-2.4c-1.7-1.2-3.1-2.6-4.2-4.4S96.2,42,96,39.9z"/>
		<path class="st4" d="M128.1,31.7v-7.6l17.9,15.8V24.9h5.8v27.6L128.1,31.7z M128.1,51.7V35.9l5.8,5v10.7H128.1z"/>
		<path class="st4" d="M175.9,44.4h7c-0.8,1.7-1.8,3-3,4.2c-1.2,1.1-2.5,2-4,2.7c-1.8,0.8-3.7,1.2-5.6,1.2c-2.6,0-5.1-0.7-7.5-2.2
			c-2.2-1.4-3.9-3.2-5-5.4c-1-2-1.5-4.1-1.5-6.5c0-3.8,1.3-7.1,3.9-9.8c1.3-1.4,2.9-2.4,4.6-3.1c1.8-0.7,3.6-1.1,5.5-1.1
			c3.9,0,7.3,1.5,10.1,4.4l-4.2,4c-1.8-1.7-3.8-2.5-5.9-2.5c-2.5,0-4.5,0.9-6.2,2.7c-1.5,1.6-2.2,3.4-2.2,5.6c0,2.3,0.8,4.3,2.4,5.9
			c1.6,1.6,3.6,2.4,5.9,2.4C172.4,46.7,174.3,45.9,175.9,44.4z M170.2,41.2v-5.6h13.7c0.2,1,0.3,1.9,0.3,2.8s-0.1,1.8-0.3,2.8H170.2
			z"/>
		<path class="st4" d="M193.8,46.6v5.6c-2.4-0.4-4.3-1.4-5.8-3.1s-2.3-3.8-2.3-6.3h5.7C191.6,44.6,192.4,45.9,193.8,46.6z
			 M199.4,24.9h5.8v16.5c0,2.1-0.2,3.6-0.6,4.7c-0.6,1.6-1.5,3-2.9,4.1s-2.9,1.8-4.7,2v-5.6c0.9-0.4,1.5-0.9,1.8-1.6
			s0.5-1.8,0.5-3.3V24.9z"/>
		<path class="st4" d="M210.2,51.7V24.9h5.8v26.7H210.2z"/>
		<path class="st4" d="M221.3,31.7v-7.6l17.9,15.8V24.9h5.8v27.6L221.3,31.7z M221.3,51.7V35.9l5.8,5v10.7H221.3z"/>
		<path class="st4" d="M269.1,44.4h7c-0.8,1.7-1.8,3-3,4.2c-1.2,1.1-2.5,2-4,2.7c-1.8,0.8-3.7,1.2-5.6,1.2c-2.6,0-5.1-0.7-7.5-2.2
			c-2.2-1.4-3.9-3.2-5-5.4c-1-2-1.5-4.1-1.5-6.5c0-3.8,1.3-7.1,3.9-9.8c1.3-1.4,2.9-2.4,4.6-3.1c1.8-0.7,3.6-1.1,5.5-1.1
			c3.9,0,7.3,1.5,10.1,4.4l-4.2,4c-1.8-1.7-3.8-2.5-5.9-2.5c-2.5,0-4.5,0.9-6.2,2.7c-1.5,1.6-2.2,3.4-2.2,5.6c0,2.3,0.8,4.3,2.4,5.9
			c1.6,1.6,3.6,2.4,5.9,2.4C265.6,46.7,267.5,45.9,269.1,44.4z M263.4,41.2v-5.6h13.7c0.2,1,0.3,1.9,0.3,2.8s-0.1,1.8-0.3,2.8H263.4
			z"/>
	</g>
	<rect x="3.4" y="4.3" class="st5" width="292.4" height="69.7"/>
</g>
</svg>
